<svg xmlns="http://www.w3.org/2000/svg" width="215" height="144" viewBox="0 0 215 144">
  <g fill="#FFF" transform="translate(0 .1)">
    <path d="M0.1,99.7 L5.8,99.7 L22.8,124.2 L39.6,99.7 L45.5,99.7 L45.5,143 L36.8,143 L36.8,118.5 L24.2,136.6 L21.2,136.6 L8.6,118.5 L8.6,143 L0,143 L0,99.7 L0.1,99.7 Z M50.7,127 C50.7,117.8 57.6,110.2 67.8,110.2 C78,110.2 84.9,117.8 84.9,127 C84.9,136.3 78,143.8 67.8,143.8 C57.6,143.8 50.7,136.3 50.7,127 Z M76.6,127 C76.6,122 72.7,117.9 67.8,117.9 C62.8,117.9 59,121.9 59,127 C59,132.1 62.9,136.1 67.8,136.1 C72.8,136.2 76.6,132.1 76.6,127 Z M121.6,98.5 L121.6,143 L113.5,143 L113.5,139.1 C111.3,141.8 108.1,143.8 103.6,143.8 C94.6,143.8 87.8,136.7 87.8,127 C87.8,117.5 94.7,110.2 103.6,110.2 C108,110.2 111.1,112.1 113.3,114.7 L113.3,98.4 L121.6,98.4 L121.6,98.5 Z M113.8,127 C113.8,122 110.3,117.8 105,117.8 C99.7,117.8 96.1,122 96.1,127 C96.1,132.1 99.7,136.3 105,136.3 C110.3,136.3 113.8,132.1 113.8,127 Z M127.5,129.5 L127.5,111 L135.8,111 L135.8,129.5 C135.8,133.5 138.1,136.2 142.2,136.2 C146.2,136.2 148.6,133.5 148.6,129.5 L148.6,111 L156.9,111 L156.9,129.5 C156.9,138.6 151.3,143.7 142.3,143.7 C133.2,143.8 127.5,138.6 127.5,129.5 Z M214.3,123.7 L214.3,143 L206,143 L206,125.3 C206,120.3 203.3,117.9 199.6,117.9 C195.6,117.9 192.6,120.8 192.6,125.6 L192.6,143.1 L184.3,143.1 L184.3,125.4 C184.3,120.6 181.7,117.9 177.9,117.9 C174,117.9 170.9,120.7 170.9,125.6 L170.9,143.1 L162.6,143.1 L162.6,111.2 L170.7,111.2 L170.7,115.8 C172.5,112.4 176.3,110.3 180.4,110.4 C184.2,110.4 188,112.2 189.8,116 C192.1,112.4 196.5,110.4 201.2,110.4 C208.6,110.2 214.3,114.9 214.3,123.7 Z"/>
    <path d="M139.6,56.3 C139.6,53.4 138.8,50.6 137.4,48 C114.4,8.2 116.2,11.2 115.8,10.5 C112.1,4 105.1,0 97.6,0 C90.1,0 83.2,4 79.4,10.5 L69.8,27.1 L60.2,10.5 C56.5,4 49.5,0 42,0 C34.5,0 27.6,4 23.8,10.5 L23.8,10.9 C23.7,11 23.7,11.1 23.6,11.2 L2.3,48.1 C0.8,50.7 0,53.6 0,56.5 C0,59.8 1.2,63.4 2.4,65 C5.8,70.5 11.3,73.3 16.8,73.3 L16.8,73.3 C22.7,73.3 28.3,70.1 31.2,65 L41.3,47.6 C41.6,47.1 42.5,47 42.8,47.5 L51.6,62.8 C55.3,69.3 62.3,73.3 69.8,73.3 C77.2,73.3 84,69.4 87.8,63.1 L96.8,47.6 C97.1,47 98.1,47 98.4,47.6 L108.4,64.9 C111.4,70.1 116.9,73.3 122.9,73.3 C128.3,73.3 134.2,70.5 137.5,64.7 C139.3,61.3 139.6,58.1 139.6,56.3 Z M82.1,12.2 C85.3,6.7 91.2,3.3 97.6,3.3 C100.7,3.3 103.7,4.1 106.4,5.6 C102.6,5.6 98.7,7.7 96.7,11.2 L79.4,41.1 C79.2,41.4 78.9,41.5 78.6,41.5 C78.3,41.5 78,41.3 77.8,41.1 L71.6,30.4 L82.1,12.2 Z M38.6,45.9 L28.5,63.3 C26.1,67.5 21.6,70.1 16.8,70.1 L16.8,70.1 C14.1,70.1 11.6,69.3 9.4,67.9 C11.1,67.5 12.8,66.4 13.7,64.8 L28.8,38.8 C29.7,37.2 31.4,36.2 33.2,36.2 C35.2,36.2 36.9,37.2 37.8,38.8 L40.9,44.2 C40,44.4 39.1,45.1 38.6,45.9 Z M40.6,37.2 C39,34.5 36.2,33 33.4,33 C30.4,33 27.7,34.6 26.2,37.2 L11.1,63.2 C10.5,64.3 9.3,64.9 8.1,64.9 C6.9,64.9 5.7,64.3 5.1,63.2 C5.1,63.1 3.2,60.3 3.2,56.3 C3.2,53.9 3.8,51.5 5.1,49.5 L26.4,12.6 L26.4,12.6 L26.4,12.6 C27.8,10.1 30.5,8.6 33.4,8.6 C36.3,8.6 39,10.2 40.4,12.6 L69,62.1 C71,65.5 74.7,67.7 78.7,67.7 C76.1,69.2 73.1,70 70,70 C63.6,70 57.7,66.6 54.5,61.1 L40.6,37.2 Z M122.8,70.1 C118,70.1 113.5,67.5 111,63.3 L101,46 C100.5,45.1 99.6,44.4 98.7,44.2 L101.8,38.9 C102.7,37.3 104.5,36.3 106.3,36.3 C108.2,36.3 109.9,37.3 110.8,38.9 L125.7,64.8 C126.6,66.4 128.3,67.6 130,68 C128,69.3 125.5,70.1 122.8,70.1 Z M134.6,63.2 C134,64.3 132.8,65 131.6,65 C130.3,65 129.2,64.3 128.5,63.2 L113.6,37.3 C112.1,34.7 109.3,33.1 106.4,33.1 C103.4,33.1 100.7,34.7 99.2,37.3 L85.7,60.7 L85.7,60.7 L85.7,60.7 C84.3,63.2 81.6,64.7 78.7,64.7 C75.8,64.7 73.2,63.1 71.7,60.7 L43.1,11.2 C41.1,7.8 37.4,5.6 33.4,5.6 C36,4.1 39,3.3 42.2,3.3 C48.6,3.3 54.5,6.7 57.7,12.2 L75.2,42.6 C75.9,43.9 77.3,44.6 78.7,44.6 C80.1,44.6 81.5,43.8 82.2,42.6 L99.5,12.7 C100.9,10.2 103.6,8.7 106.5,8.7 C109.3,8.7 112,10.2 113.5,12.7 L134.8,49.7 C136,51.8 136.6,54.1 136.6,56.4 C136.5,58.7 135.9,61 134.6,63.2 Z" transform="translate(36.2)"/>
  </g>
</svg>
