<svg xmlns="http://www.w3.org/2000/svg" width="215" height="144" viewBox="0 0 215 144">
  <g fill="none">
    <path fill="#7D41FE" d="M0.1,99.8 L5.8,99.8 L22.8,124.3 L39.6,99.8 L45.5,99.8 L45.5,143.1 L36.8,143.1 L36.8,118.6 L24.2,136.7 L21.2,136.7 L8.6,118.6 L8.6,143.1 L-5.68434189e-14,143.1 L-5.68434189e-14,99.8 L0.1,99.8 Z M50.7,127.1 C50.7,117.9 57.6,110.3 67.8,110.3 C78,110.3 84.9,117.9 84.9,127.1 C84.9,136.4 78,143.9 67.8,143.9 C57.6,143.9 50.7,136.4 50.7,127.1 Z M76.6,127.1 C76.6,122.1 72.7,118 67.8,118 C62.8,118 59,122 59,127.1 C59,132.2 62.9,136.2 67.8,136.2 C72.8,136.3 76.6,132.2 76.6,127.1 Z M121.6,98.6 L121.6,143.1 L113.5,143.1 L113.5,139.2 C111.3,141.9 108.1,143.9 103.6,143.9 C94.6,143.9 87.8,136.8 87.8,127.1 C87.8,117.6 94.7,110.3 103.6,110.3 C108,110.3 111.1,112.2 113.3,114.8 L113.3,98.5 L121.6,98.5 L121.6,98.6 Z M113.8,127.1 C113.8,122.1 110.3,117.9 105,117.9 C99.7,117.9 96.1,122.1 96.1,127.1 C96.1,132.2 99.7,136.4 105,136.4 C110.3,136.4 113.8,132.2 113.8,127.1 Z M127.5,129.6 L127.5,111.1 L135.8,111.1 L135.8,129.6 C135.8,133.6 138.1,136.3 142.2,136.3 C146.2,136.3 148.6,133.6 148.6,129.6 L148.6,111.1 L156.9,111.1 L156.9,129.6 C156.9,138.7 151.3,143.8 142.3,143.8 C133.2,143.9 127.5,138.7 127.5,129.6 Z M214.3,123.8 L214.3,143.1 L206,143.1 L206,125.4 C206,120.4 203.3,118 199.6,118 C195.6,118 192.6,120.9 192.6,125.7 L192.6,143.2 L184.3,143.2 L184.3,125.5 C184.3,120.7 181.7,118 177.9,118 C174,118 170.9,120.8 170.9,125.7 L170.9,143.2 L162.6,143.2 L162.6,111.3 L170.7,111.3 L170.7,115.9 C172.5,112.5 176.3,110.4 180.4,110.5 C184.2,110.5 188,112.3 189.8,116.1 C192.1,112.5 196.5,110.5 201.2,110.5 C208.6,110.3 214.3,115 214.3,123.8 Z"/>
    <g transform="translate(36)">
      <path fill="#AD9DFE" d="M39.4,38.1 C38.2,36 36,34.7 33.5,34.7 C31.7,34.7 30,35.4 28.7,36.7 C28.3,37.1 27.9,37.6 27.6,38.1 L12.5,64.1 C11.6,65.7 9.9,66.6 8.1,66.6 C6.3,66.6 4.7,65.7 3.8,64.2 C6.5,68.9 11.5,71.8 16.9,71.8 C22.3,71.8 27.3,68.9 30,64.3 L40.1,46.9 C40.5,46.1 41.4,45.7 42.2,45.7 C43.1,45.7 43.9,46.2 44.3,46.9 L39.4,38.1 Z M136.2,49 C137.5,51.3 138.2,53.9 138.2,56.5 C138.2,59.1 137.5,61.7 136.2,64.1 C135.7,65.1 134.1,66.7 131.8,66.7 C130,66.7 128.3,65.7 127.4,64.2 L112.5,38.3 C111.3,36.2 109.1,34.9 106.6,34.9 C104.2,34.9 101.9,36.2 100.7,38.3 L87.2,61.7 L87.2,61.7 C85.5,64.7 82.3,66.5 78.9,66.5 C75.5,66.5 72.3,64.7 70.5,61.7 L41.9,12 C40.2,9 37,7.2 33.5,7.2 C30.1,7.2 26.9,9 25.2,12 L25.5,11.5 C29,5.5 35.4,1.8 42.3,1.8 C49.2,1.8 55.6,5.5 59.1,11.5 L76.6,41.9 C77,42.7 77.9,43.1 78.7,43.1 C79.6,43.1 80.4,42.6 80.8,41.9 L98,12 C99.7,9 102.9,7.2 106.3,7.2 C109.7,7.2 112.9,9 114.6,12 C114.9,12.1 121.2,22.9 136.2,49 Z"/>
      <path fill="#7D41FE" d="M139.8,56.4 C139.8,53.5 139,50.7 137.6,48.1 C114.6,8.3 116.4,11.3 116,10.6 C112.3,4.1 105.3,0.1 97.8,0.1 C90.3,0.1 83.4,4.1 79.6,10.6 L70,27.2 L60.4,10.6 C56.7,4.1 49.7,0.1 42.2,0.1 C34.7,0.1 27.8,4.1 24,10.6 L24,11 C23.9,11.1 23.9,11.2 23.8,11.3 L2.5,48.2 C1,50.8 0.2,53.7 0.2,56.6 C0.2,59.9 1.4,63.5 2.6,65.1 C6,70.6 11.5,73.4 17,73.4 L17,73.4 C22.9,73.4 28.5,70.2 31.4,65.1 L41.5,47.7 C41.8,47.2 42.7,47.1 43,47.6 L51.8,62.9 C55.5,69.4 62.5,73.4 70,73.4 C77.4,73.4 84.2,69.5 88,63.2 L97,47.7 C97.3,47.1 98.3,47.1 98.6,47.7 L108.6,65 C111.6,70.2 117.1,73.4 123.1,73.4 C128.5,73.4 134.4,70.6 137.7,64.8 C139.5,61.4 139.8,58.2 139.8,56.4 Z M82.3,12.3 C85.5,6.8 91.4,3.4 97.8,3.4 C100.9,3.4 103.9,4.2 106.6,5.7 C102.8,5.7 98.9,7.8 96.9,11.3 L79.6,41.2 C79.4,41.5 79.1,41.6 78.8,41.6 C78.5,41.6 78.2,41.4 78,41.2 L71.8,30.5 L82.3,12.3 Z M38.8,46 L28.7,63.4 C26.3,67.6 21.8,70.2 17,70.2 L17,70.2 C14.3,70.2 11.8,69.4 9.6,68 C11.3,67.6 13,66.5 13.9,64.9 L29,38.9 C29.9,37.3 31.6,36.3 33.4,36.3 C35.4,36.3 37.1,37.3 38,38.9 L41.1,44.3 C40.2,44.5 39.3,45.2 38.8,46 Z M40.8,37.3 C39.2,34.6 36.4,33.1 33.6,33.1 C30.6,33.1 27.9,34.7 26.4,37.3 L11.3,63.3 C10.7,64.4 9.5,65 8.3,65 C7.1,65 5.9,64.4 5.3,63.3 C5.3,63.2 3.4,60.4 3.4,56.4 C3.4,54 4,51.6 5.3,49.6 L26.6,12.7 L26.6,12.7 L26.6,12.7 C28,10.2 30.7,8.7 33.6,8.7 C36.5,8.7 39.2,10.3 40.6,12.7 L69.2,62.2 C71.2,65.6 74.9,67.8 78.9,67.8 C76.3,69.3 73.3,70.1 70.2,70.1 C63.8,70.1 57.9,66.7 54.7,61.2 L40.8,37.3 Z M123,70.2 C118.2,70.2 113.7,67.6 111.2,63.4 L101.2,46.1 C100.7,45.2 99.8,44.5 98.9,44.3 L102,39 C102.9,37.4 104.7,36.4 106.5,36.4 C108.4,36.4 110.1,37.4 111,39 L125.9,64.9 C126.8,66.5 128.5,67.7 130.2,68.1 C128.2,69.4 125.7,70.2 123,70.2 Z M134.8,63.3 C134.2,64.4 133,65.1 131.8,65.1 C130.5,65.1 129.4,64.4 128.7,63.3 L113.8,37.4 C112.3,34.8 109.5,33.2 106.6,33.2 C103.6,33.2 100.9,34.8 99.4,37.4 L85.9,60.8 L85.9,60.8 L85.9,60.8 C84.5,63.3 81.8,64.8 78.9,64.8 C76,64.8 73.4,63.2 71.9,60.8 L43.3,11.3 C41.3,7.9 37.6,5.7 33.6,5.7 C36.2,4.2 39.2,3.4 42.4,3.4 C48.8,3.4 54.7,6.8 57.9,12.3 L75.4,42.7 C76.1,44 77.5,44.7 78.9,44.7 C80.3,44.7 81.7,43.9 82.4,42.7 L99.7,12.8 C101.1,10.3 103.8,8.8 106.7,8.8 C109.5,8.8 112.2,10.3 113.7,12.8 L135,49.8 C136.2,51.9 136.8,54.2 136.8,56.5 C136.7,58.8 136.1,61.1 134.8,63.3 Z"/>
    </g>
  </g>
</svg>
