<svg xmlns="http://www.w3.org/2000/svg" viewBox="0 0 296 377">
  <defs>
    <filter id="filter-1">
      <feColorMatrix in="SourceGraphic" values="0 0 0 0 1.000000 0 0 0 0 1.000000 0 0 0 0 1.000000 0 0 0 1.000000 0"/>
    </filter>
  </defs>
  <g id="Page-1" fill-rule="evenodd" opacity=".2">
    <g id="Symbol_-_On_White-Copy" filter="url(#filter-1)" transform="translate(0 -377)">
      <path id="Shading" fill-rule="nonzero" d="M403.595238,391.371429 C391.238095,369.771429 368.583333,356.4 342.839286,356.4 C324.303571,356.4 306.797619,363.6 293.410714,376.971429 C289.291667,381.085714 285.172619,386.228571 282.083333,391.371429 L126.589286,658.8 C117.321429,675.257143 99.8154762,684.514286 81.2797619,684.514286 C62.7440476,684.514286 46.2678571,675.257143 37,659.828571 C64.8035714,708.171429 116.291667,738 171.89881,738 C227.505952,738 278.994048,708.171429 306.797619,660.857143 L410.803571,481.885714 C414.922619,473.657143 424.190476,469.542857 432.428571,469.542857 C441.696429,469.542857 449.934524,474.685714 454.053571,481.885714 L403.595238,391.371429 Z M1400.40476,503.485714 C1413.79167,527.142857 1421,553.885714 1421,580.628571 C1421,607.371429 1413.79167,634.114286 1400.40476,658.8 C1395.25595,669.085714 1378.77976,685.542857 1355.09524,685.542857 C1336.55952,685.542857 1319.05357,675.257143 1309.78571,659.828571 L1156.35119,393.428571 C1143.99405,371.828571 1121.33929,358.457143 1095.59524,358.457143 C1070.88095,358.457143 1047.19643,371.828571 1034.83929,393.428571 L895.821429,634.114286 L895.821429,634.114286 C878.315476,664.971429 845.363095,683.485714 810.35119,683.485714 C775.339286,683.485714 742.386905,664.971429 723.85119,634.114286 L429.339286,122.914286 C411.833333,92.0571429 378.880952,73.5428571 342.839286,73.5428571 C307.827381,73.5428571 274.875,92.0571429 257.369048,122.914286 L260.458333,117.771429 C296.5,56.0571429 362.404762,18 433.458333,18 C504.511905,18 570.416667,56.0571429 606.458333,117.771429 L786.666667,430.457143 C790.785714,438.685714 800.053571,442.8 808.291667,442.8 C817.559524,442.8 825.797619,437.657143 829.916667,430.457143 L1007.03571,122.914286 C1024.54167,92.0571429 1057.49405,73.5428571 1092.50595,73.5428571 C1127.51786,73.5428571 1160.47024,92.0571429 1177.97619,122.914286 C1181.06548,123.942857 1245.94048,235.028571 1400.40476,503.485714 Z" opacity=".11"/>
      <path id="Lines" fill-rule="nonzero" d="M1437,579.129604 C1437,549.298772 1428.76504,520.496589 1414.35387,493.751705 C1177.59885,84.3492497 1196.12751,115.208731 1192.01003,108.008186 C1153.92335,41.1459754 1081.86748,0 1004.66476,0 C927.462034,0 856.43553,41.1459754 817.319484,108.008186 L718.5,278.763984 L619.680516,108.008186 C581.59384,41.1459754 509.537966,0 432.335244,0 C355.132521,0 284.106017,41.1459754 244.989971,108.008186 L244.989971,112.122783 C243.960602,113.151432 243.960602,114.180082 242.931232,115.208731 L23.6755014,494.780355 C8.23495702,521.525239 0,551.356071 0,581.186903 C0,615.132333 12.3524355,652.163711 24.7048711,668.622101 C59.7034384,725.197817 116.318768,754 172.934097,754 L172.934097,754 C233.666905,754 291.311605,721.08322 321.163324,668.622101 L425.129656,489.637108 C428.217765,484.493861 437.482092,483.465211 440.570201,488.608458 L531.154728,645.991814 C569.241404,712.854025 641.297278,754 718.5,754 C794.673352,754 864.670487,713.882674 903.786533,649.077763 L996.429799,489.637108 C999.517908,483.465211 1009.8116,483.465211 1012.89971,489.637108 L1115.83668,667.593452 C1146.71777,721.08322 1203.33309,754 1265.09527,754 C1320.68123,754 1381.41404,725.197817 1415.38324,665.536153 C1433.91189,630.562074 1437,597.645293 1437,579.129604 Z M845.112464,125.495225 C878.052292,68.9195089 938.7851,33.9454297 1004.66476,33.9454297 C1036.57521,33.9454297 1067.4563,42.1746248 1095.24928,57.6043656 C1056.13324,57.6043656 1015.98782,79.2060027 995.40043,115.208731 L817.319484,422.774898 C815.260745,425.860846 812.172636,426.889495 809.084527,426.889495 C805.996418,426.889495 802.908309,424.832196 800.84957,422.774898 L737.028653,312.709413 L845.112464,125.495225 Z M397.336676,472.150068 L293.370344,651.135061 C268.665473,694.338336 222.34384,721.08322 172.934097,721.08322 L172.934097,721.08322 C145.141117,721.08322 119.406877,712.854025 96.760745,698.452933 C114.260029,694.338336 131.759312,683.023192 141.023639,666.564802 L296.458453,399.115962 C305.722779,382.657572 323.222063,372.371078 341.750716,372.371078 C362.338109,372.371078 379.837393,382.657572 389.101719,399.115962 L421.012178,454.663029 C411.747851,456.720327 402.483524,463.920873 397.336676,472.150068 Z M417.924069,382.657572 C401.454155,354.884038 372.631805,339.454297 343.809456,339.454297 C312.928367,339.454297 285.135387,355.912688 269.694842,382.657572 L114.260029,650.106412 C108.083811,661.421555 95.7313754,667.593452 83.3789398,667.593452 C71.0265043,667.593452 58.6740688,661.421555 52.497851,650.106412 C52.497851,649.077763 32.9398281,620.27558 32.9398281,579.129604 C32.9398281,554.442019 39.1160458,529.754434 52.497851,509.181446 L271.753582,129.609823 L271.753582,129.609823 L271.753582,129.609823 C286.164756,103.893588 313.957736,88.4638472 343.809456,88.4638472 C373.661175,88.4638472 401.454155,104.922237 415.86533,129.609823 L710.265043,638.791269 C730.852436,673.765348 768.939112,696.395634 810.113897,696.395634 C783.350287,711.825375 752.469198,720.05457 720.558739,720.05457 C654.679083,720.05457 593.946275,685.080491 561.006447,628.504775 L417.924069,382.657572 Z M1264.0659,721.08322 C1214.65616,721.08322 1168.33453,694.338336 1142.60029,651.135061 L1039.66332,473.178718 C1034.51648,463.920873 1025.25215,456.720327 1015.98782,454.663029 L1047.89828,400.144611 C1057.16261,383.686221 1075.69126,373.399727 1094.21991,373.399727 C1113.77794,373.399727 1131.27722,383.686221 1140.54155,400.144611 L1293.91762,666.564802 C1303.18195,683.023192 1320.68123,695.366985 1338.18052,699.481583 C1317.59312,712.854025 1291.85888,721.08322 1264.0659,721.08322 Z M1385.53152,650.106412 C1379.3553,661.421555 1367.00287,668.622101 1354.65043,668.622101 C1341.26862,668.622101 1329.94556,661.421555 1322.73997,650.106412 L1169.3639,383.686221 C1153.92335,356.941337 1125.101,340.482947 1095.24928,340.482947 C1064.36819,340.482947 1036.57521,356.941337 1021.13467,383.686221 L882.169771,624.390177 L882.169771,624.390177 L882.169771,624.390177 C867.758596,650.106412 839.965616,665.536153 810.113897,665.536153 C780.262178,665.536153 753.498567,649.077763 738.058023,624.390177 L443.658309,115.208731 C423.070917,80.2346521 384.984241,57.6043656 343.809456,57.6043656 C370.573066,42.1746248 401.454155,33.9454297 434.393983,33.9454297 C500.273639,33.9454297 561.006447,68.9195089 593.946275,125.495225 L774.08596,438.204638 C781.291547,451.57708 795.702722,458.777626 810.113897,458.777626 C824.525072,458.777626 838.936246,450.548431 846.141834,438.204638 L1024.22278,130.638472 C1038.63395,104.922237 1066.42693,89.4924966 1096.27865,89.4924966 C1125.101,89.4924966 1152.89398,104.922237 1168.33453,130.638472 L1387.59026,511.238745 C1399.94269,532.840382 1406.11891,556.499318 1406.11891,580.158254 C1405.08954,603.81719 1398.91332,627.476126 1385.53152,650.106412 Z" opacity=".78"/>
    </g>
  </g>
</svg>
